# Blender v2.79 (sub 0) OBJ File: ''
# www.blender.org
mtllib Better Fist.mtl
o Icosphere.001
v 0.344302 -1.319804 0.018362
v 1.444105 -0.987235 1.467974
v -0.453301 -0.987732 2.240130
v -1.617265 -0.804844 0.348193
v -0.527406 -0.667333 -2.095359
v 1.212140 -0.564503 -1.348541
v 0.656504 0.690756 2.429963
v -1.344525 0.742823 1.478962
v -1.190583 0.495227 -1.229013
v 0.576028 0.689732 -2.110338
v 1.491057 0.521810 0.001010
v 0.041988 1.140430 0.088917
v -0.191590 -1.450059 1.652093
v 0.983881 -1.505562 1.009624
v 0.612475 -1.142820 2.327312
v 1.682415 -0.987596 0.026103
v 0.873741 -1.213448 -0.558475
v -1.153474 -1.067140 0.294155
v -1.323489 -0.980942 1.392331
v -0.426867 -0.889494 -1.206012
v -1.130131 -0.623746 -1.236491
v 0.524486 -0.703503 -2.061446
v 1.630232 -0.133374 0.667943
v 1.656451 -0.071960 -0.726068
v 0.113395 -0.059533 2.593248
v 1.124070 0.028470 2.235886
v -1.965209 0.038783 0.885444
v -1.295316 -0.048023 1.997827
v -0.992728 -0.040001 -2.072352
v -1.632439 0.006196 -0.716491
v 1.194079 -0.009849 -2.110893
v 0.000696 0.019766 -2.149670
v 1.220366 0.788717 1.433941
v -0.509003 0.607616 2.296598
v -1.520337 0.627411 0.058779
v -0.413221 0.743010 -2.057170
v 1.149456 0.576804 -1.354811
v 0.284524 1.124107 1.434665
v 0.914672 0.963892 0.081820
v -0.824751 1.060399 0.910999
v -0.687555 0.916437 -0.708758
v 0.304156 0.927664 -1.393742
v -0.084297 -1.123796 0.998009
v 1.308976 -1.390775 1.225770
v -0.028449 -1.027187 2.294972
v 1.661239 -0.999250 0.744980
v 1.127531 -0.967007 -0.813244
v -0.029834 -1.154450 -0.041167
v -1.675329 -0.940706 0.709775
v 0.158837 -1.183640 -0.505336
v -0.804473 -0.606437 -1.939072
v 0.935166 -0.604175 -1.914093
v 1.599865 -0.602591 1.051476
v 1.630074 0.243420 -0.388926
v -0.091839 -0.447123 2.466350
v 0.976111 0.154165 2.411648
v -1.835178 -0.461737 0.590199
v -1.312795 0.494322 1.784172
v -0.859881 -0.397319 -2.122106
v -1.473745 0.260632 -1.002037
v 1.230862 -0.311150 -1.896360
v 0.341632 0.488642 -2.149621
v 1.204629 0.730330 2.084361
v -1.099102 0.658185 1.932021
v -1.381140 0.610155 -0.612607
v 0.026572 0.786104 -2.105649
v 1.354602 0.539468 -0.646239
v 0.529056 1.069093 1.967996
v 0.412336 1.097554 0.077636
v -1.077076 0.967369 1.225597
v -1.026869 0.707953 -1.015801
v 0.391300 0.843715 -1.902436
v -0.440693 -1.334224 1.955643
v 0.648789 -1.399924 0.308828
v 1.195192 -1.110670 2.045161
v 1.519853 -0.828003 -0.599227
v 0.575839 -1.342619 -0.259124
v -1.397537 -1.007945 0.315577
v -1.021617 -0.928444 1.755411
v -0.422712 -0.755340 -1.950223
v -1.409738 -0.581827 -0.615394
v -0.024614 -0.734146 -2.097732
v 1.596878 0.287951 0.378839
v 1.530089 -0.336270 -0.979342
v 0.402983 0.319282 2.451535
v 1.102901 -0.368973 1.936190
v -1.815651 0.416339 1.180876
v -0.784626 -0.456740 2.289050
v -1.041679 0.277735 -1.694359
v -1.676850 -0.304935 -0.332597
v 0.951210 0.413987 -2.135971
v -0.306495 -0.475679 -2.149627
v 1.348006 0.704778 0.687381
v -0.052217 0.663784 2.336858
v -1.614410 0.650016 0.760245
v -0.715536 0.598775 -1.958127
v 0.876999 0.663501 -1.890738
v 0.135104 1.159995 0.732194
v 1.237058 0.796994 0.091148
v -0.377959 1.115807 0.494498
v -0.357118 1.064100 -0.319721
v 0.149088 1.058698 -0.560038
v 0.583120 0.984444 -0.570763
v 0.989159 0.820678 -0.598679
v -0.176884 0.967295 -1.029742
v -0.075244 0.870846 -1.851562
v -0.493924 0.792070 -1.491159
v -0.694559 1.034809 0.051093
v -1.154039 0.801925 -0.350169
v -1.122032 0.893349 0.527079
v -0.246204 1.143820 1.174946
v -0.703934 1.019602 1.559167
v -0.119153 1.139210 1.877850
v 0.664557 1.077505 0.762123
v 0.841229 1.043371 1.509608
v 1.073004 0.942901 0.730437
v 1.423104 0.335541 -1.066938
v 1.401092 -0.013932 -1.520629
v 1.185837 0.384817 -1.838359
v -0.325500 0.545650 -2.149341
v -0.700116 0.025620 -2.149454
v -0.779082 0.438460 -2.096333
v -1.634778 0.346702 -0.349683
v -1.853564 0.012809 0.111493
v -1.836671 0.406323 0.537469
v -0.754497 0.042072 2.282286
v -0.640247 -0.028159 2.406035
v -0.313218 0.272575 2.361463
v 1.293368 0.546603 1.914386
v 1.390688 0.110322 1.470867
v 1.454519 0.446139 1.154115
v 0.706908 0.001743 -2.149550
v 0.925923 -0.482744 -2.121797
v 0.282681 -0.567447 -2.148459
v -1.336064 -0.015100 -1.389232
v -1.008388 -0.366908 -1.855286
v -1.456640 -0.341187 -1.027162
v -1.719248 -0.111539 1.488306
v -1.829683 -0.565885 1.186886
v -1.357384 -0.533913 1.828188
v 0.687270 -0.000558 2.518358
v 0.299159 -0.571696 2.625504
v 0.879819 -0.542417 2.279911
v 1.763917 -0.073329 -0.031857
v 1.771621 -0.607928 0.411493
v 1.757585 -0.516375 -0.353905
v 0.650834 -0.802955 -1.457079
v 0.414777 -1.150380 -0.742413
v 0.074531 -0.796732 -1.925853
v -0.780473 -0.825400 -1.248409
v -0.675696 -0.907985 -0.795289
v -1.069950 -0.783231 -0.722196
v -1.338222 -1.148182 0.731049
v -0.804074 -1.122992 0.947901
v -0.972955 -1.150968 1.421000
v 1.325898 -1.203651 -0.307918
v 1.387550 -1.373991 0.469203
v 0.936046 -1.442951 0.062868
v 0.098323 -1.552504 1.949752
v 0.501060 -1.513027 1.361718
v 0.706745 -1.498738 1.703202
vn -0.3046 -0.9508 0.0570
vn 0.8556 -0.4451 0.2643
vn -0.4050 -0.9143 0.0057
vn -0.3888 -0.9158 -0.1004
vn -0.2736 -0.9501 -0.1501
vn 0.9547 -0.0748 0.2880
vn -0.1492 -0.2951 0.9437
vn -0.8874 -0.3661 -0.2801
vn -0.4775 -0.6469 -0.5945
vn 0.6829 -0.6717 -0.2873
vn 0.8786 0.1389 0.4569
vn -0.2379 -0.2353 0.9424
vn -0.8863 -0.4069 -0.2212
vn -0.0756 -0.1900 -0.9789
vn 0.7436 -0.6161 -0.2595
vn 0.2942 0.7776 0.5557
vn -0.3739 0.8539 0.3621
vn -0.5705 0.7574 -0.3176
vn 0.1452 0.8524 -0.5023
vn 0.7070 0.6952 -0.1301
vn 0.2566 0.9613 -0.1001
vn 0.3604 0.9200 -0.1542
vn -0.0419 0.9858 -0.1627
vn -0.0070 0.9931 -0.1174
vn -0.4637 0.8745 -0.1419
vn -0.2493 0.9565 -0.1513
vn -0.3414 0.9282 -0.1477
vn -0.4758 0.8747 -0.0920
vn -0.1363 0.9906 -0.0144
vn -0.1848 0.9781 0.0960
vn -0.1468 0.6763 0.7219
vn 0.1529 0.9881 0.0179
vn 0.1420 0.9898 0.0116
vn 0.6568 0.7535 0.0276
vn 0.9152 0.3276 -0.2349
vn 0.9154 0.2962 -0.2726
vn 0.7407 0.3922 -0.5455
vn -0.0004 0.0004 -1.0000
vn -0.0003 0.0004 -1.0000
vn -0.8413 0.3552 -0.4075
vn -0.9232 0.2788 -0.2647
vn -0.9314 0.2638 -0.2508
vn -0.9360 0.3511 0.0251
vn -0.4826 0.3075 0.8201
vn -0.4648 0.5141 0.7209
vn -0.1402 0.4392 0.8874
vn 0.7973 0.1080 0.5939
vn 0.9421 -0.1115 0.3164
vn 0.9741 0.1753 0.1431
vn 0.0788 -0.0138 -0.9968
vn 0.0786 -0.0216 -0.9967
vn 0.0833 -0.4276 -0.9001
vn -0.8206 0.3807 -0.4263
vn -0.8703 -0.2429 -0.4285
vn -0.7250 -0.6274 -0.2841
vn -0.9190 0.0591 0.3897
vn -0.9276 -0.0220 0.3730
vn -0.5748 -0.5932 0.5637
vn 0.0953 0.2840 0.9541
vn 0.1181 0.1050 0.9874
vn 0.4380 -0.1247 0.8903
vn 0.9560 0.2136 0.2010
vn 0.9634 0.1793 0.1994
vn 0.8577 -0.3987 -0.3247
vn 0.3372 -0.8219 -0.4591
vn 0.0458 -0.9043 -0.4245
vn -0.0730 -0.9814 -0.1773
vn -0.1551 -0.9721 -0.1761
vn -0.1602 -0.9770 -0.1410
vn -0.2494 -0.9272 -0.2795
vn -0.2494 -0.9278 -0.2776
vn 0.1029 -0.9849 -0.1392
vn -0.3700 -0.9277 0.0504
vn 0.7002 -0.6267 -0.3420
vn 0.6441 -0.7349 -0.2122
vn -0.1938 -0.9795 -0.0550
vn -0.3745 -0.9261 0.0460
vn -0.1621 -0.9709 -0.1762
vn 0.2624 -0.9582 0.1143
vn 0.2902 -0.8118 0.5068
vn 0.4237 -0.8375 0.3451
vn 0.8517 -0.4482 0.2715
vn 0.2776 -0.8159 0.5072
vn 0.0844 -0.9964 -0.0091
vn 0.0319 -0.9992 0.0226
vn -0.1567 -0.6301 0.7605
vn -0.2232 -0.5724 0.7890
vn -0.1433 -0.5674 0.8109
vn 0.0530 -0.9350 -0.3507
vn -0.2076 -0.9756 -0.0718
vn -0.1863 -0.9796 -0.0749
vn 0.2177 -0.9083 -0.3573
vn 0.3435 -0.9113 -0.2270
vn 0.2164 -0.9734 -0.0753
vn 0.5098 -0.7244 -0.4641
vn 0.5232 -0.6743 -0.5212
vn 0.2934 -0.8164 -0.4975
vn -0.4176 -0.7833 0.4605
vn -0.6143 -0.6952 0.3732
vn -0.5821 -0.5285 0.6179
vn -0.4399 -0.8683 0.2294
vn 0.0620 -0.9974 -0.0368
vn -0.3094 -0.9364 -0.1658
vn -0.6626 -0.6599 -0.3543
vn -0.5026 -0.8383 -0.2112
vn -0.5213 -0.8245 0.2201
vn -0.5441 -0.8173 -0.1898
vn -0.5563 -0.7583 -0.3398
vn -0.6710 -0.6775 -0.3013
vn -0.4943 -0.8450 -0.2042
vn -0.3168 -0.9433 -0.0987
vn -0.3363 -0.8995 -0.2789
vn -0.3556 -0.8906 -0.2835
vn -0.3566 -0.8941 -0.2711
vn -0.4903 -0.8356 -0.2479
vn 0.0765 -0.9219 -0.3798
vn -0.0639 -0.9490 -0.3087
vn -0.1197 -0.8849 -0.4502
vn 0.1440 -0.9712 -0.1899
vn 0.2722 -0.8977 -0.3465
vn -0.1653 -0.9570 -0.2385
vn 0.7434 -0.5858 -0.3230
vn 0.1237 -0.9358 -0.3301
vn 0.3021 -0.9285 -0.2159
vn 0.9266 -0.0941 -0.3641
vn 0.8522 -0.3310 -0.4053
vn 0.8044 -0.3737 -0.4618
vn 0.9836 0.0965 -0.1521
vn 0.9998 -0.0009 -0.0184
vn 0.9811 -0.1893 -0.0406
vn 0.9023 0.4309 0.0140
vn 0.9144 0.4045 0.0161
vn 0.9598 0.2386 -0.1481
vn 0.8582 -0.3374 0.3868
vn 0.7791 0.1849 0.5990
vn 0.8905 0.1727 0.4210
vn 0.5431 -0.1689 0.8225
vn 0.5093 -0.1885 0.8397
vn 0.5108 -0.1608 0.8446
vn 0.0720 0.0088 0.9974
vn 0.1618 0.3375 0.9273
vn 0.5085 -0.4380 0.7413
vn -0.5988 -0.1947 0.7768
vn -0.4830 -0.5385 0.6905
vn -0.6087 -0.4406 0.6598
vn -0.7544 -0.1284 0.6437
vn -0.7843 -0.1991 0.5875
vn -0.6591 -0.5500 0.5129
vn -0.6842 0.5291 0.5019
vn -0.7637 0.2151 0.6087
vn -0.7637 0.2152 0.6086
vn -0.9335 -0.2179 -0.2846
vn -0.8064 -0.5459 -0.2272
vn -0.8196 -0.4937 -0.2908
vn -0.9113 -0.1051 -0.3981
vn -0.8653 -0.1934 -0.4624
vn -0.7324 -0.5657 -0.3789
vn -0.7554 0.4668 -0.4599
vn -0.8135 0.2964 -0.5004
vn -0.9079 0.1134 -0.4036
vn 0.0018 -0.0012 -1.0000
vn -0.0343 -0.2326 -0.9720
vn -0.0357 -0.2340 -0.9716
vn 0.0001 -0.0020 -1.0000
vn 0.0462 -0.0363 -0.9983
vn 0.0922 -0.4150 -0.9051
vn 0.0401 0.1464 -0.9884
vn 0.0246 0.0183 -0.9995
vn 0.0002 -0.0000 -1.0000
vn 0.8546 0.5118 0.0886
vn 0.8769 0.4763 0.0638
vn 0.8743 0.4823 0.0537
vn 0.8620 0.4931 0.1175
vn 0.9785 0.0086 0.2063
vn 0.9615 0.0683 0.2661
vn 0.4996 0.2695 0.8233
vn 0.8604 -0.0533 0.5068
vn 0.9187 0.3907 0.0573
vn -0.1030 0.1307 0.9861
vn -0.1330 0.1504 0.9796
vn -0.1344 0.1486 0.9797
vn -0.2097 0.0663 0.9755
vn -0.4220 0.5641 0.7097
vn -0.2103 0.3633 0.9076
vn -0.7182 0.5011 0.4827
vn -0.6165 0.0992 0.7811
vn -0.5030 0.1971 0.8415
vn -0.6796 0.7245 -0.1145
vn -0.7451 0.6668 0.0140
vn -0.6200 0.7733 0.1330
vn -0.7558 0.6190 -0.2136
vn -0.9288 0.2898 -0.2309
vn -0.9688 0.2001 -0.1465
vn -0.7461 0.5739 -0.3376
vn -0.8138 0.5152 -0.2689
vn -0.7920 0.5836 -0.1792
vn -0.4996 0.6707 -0.5483
vn -0.7798 0.5564 -0.2869
vn -0.7843 0.4267 -0.4504
vn -0.1890 0.3453 -0.9193
vn -0.1388 0.1002 -0.9852
vn -0.2692 0.0721 -0.9604
vn 0.0211 0.1680 -0.9856
vn 0.0133 0.1599 -0.9870
vn -0.1374 0.3683 -0.9195
vn 0.6733 0.7032 -0.2285
vn 0.6407 0.6266 -0.4437
vn 0.4666 0.6867 -0.5575
vn 0.7549 0.6270 -0.1921
vn 0.9209 0.2860 -0.2650
vn 0.9166 0.2400 -0.3198
vn 0.7852 0.6010 -0.1491
vn 0.7881 0.5944 -0.1598
vn 0.7520 0.6329 -0.1844
vn 0.4600 0.8839 -0.0837
vn 0.6542 0.7563 -0.0047
vn 0.7296 0.6833 -0.0301
vn 0.3095 0.9498 -0.0448
vn 0.3107 0.9500 -0.0301
vn 0.5650 0.8228 0.0620
vn 0.1135 0.9924 -0.0466
vn 0.1554 0.9874 -0.0284
vn 0.2571 0.9641 -0.0665
vn 0.0996 0.9934 0.0568
vn -0.0254 0.6925 0.7210
vn -0.1138 0.7530 0.6481
vn 0.0372 0.9993 -0.0002
vn -0.2247 0.9733 0.0470
vn -0.4353 0.7320 0.5240
vn -0.0770 0.9968 -0.0192
vn -0.0734 0.9969 -0.0268
vn 0.0135 0.9987 0.0481
vn -0.4196 0.9051 -0.0689
vn -0.4662 0.8824 -0.0635
vn -0.5751 0.8105 0.1113
vn -0.3996 0.9125 -0.0877
vn -0.3934 0.9158 -0.0811
vn -0.4936 0.8667 -0.0723
vn -0.1218 0.9904 -0.0660
vn -0.1587 0.9851 -0.0666
vn -0.1737 0.9832 -0.0556
vn -0.3492 0.9082 -0.2308
vn -0.3389 0.9152 -0.2180
vn -0.6002 0.7474 -0.2849
vn -0.2249 0.9521 -0.2070
vn -0.3045 0.9409 -0.1481
vn -0.2848 0.9507 -0.1230
vn -0.0527 0.9897 -0.1333
vn -0.0607 0.9868 -0.1499
vn -0.2116 0.9598 -0.1846
vn 0.3330 0.8748 -0.3520
vn 0.3741 0.9159 -0.1452
vn 0.1112 0.9881 -0.1061
vn 0.1642 0.9782 -0.1274
vn 0.1644 0.9787 -0.1232
vn 0.4586 0.8784 -0.1347
vn 0.5845 0.7905 -0.1829
vn 0.5940 0.7939 -0.1301
vn 0.0404 0.9869 -0.1560
vn 0.0217 0.9510 -0.3085
vn -0.1302 0.9237 -0.3603
vn -0.3756 0.9051 -0.1995
vn -0.4763 0.8535 -0.2115
vn -0.5443 0.8281 -0.1341
vn -0.2280 0.9682 0.1034
vn -0.4300 0.8319 0.3507
vn -0.2527 0.8147 0.5219
vn 0.1383 0.9896 0.0387
vn 0.4052 0.8858 0.2262
vn 0.5674 0.8188 0.0872
vn 0.9382 -0.1492 -0.3124
vn 0.9394 -0.1455 -0.3105
vn 0.9366 -0.1201 -0.3293
vn -0.0003 0.0001 -1.0000
vn -0.0558 -0.0434 -0.9975
vn -0.2623 0.0367 -0.9643
vn -0.9514 -0.1760 -0.2527
vn -0.9485 -0.2425 -0.2039
vn -0.9755 -0.1739 -0.1349
vn -0.5269 -0.0540 0.8482
vn -0.2416 -0.1789 0.9537
vn -0.2442 -0.1825 0.9524
vn 0.9182 -0.2685 0.2913
vn 0.8669 -0.0380 0.4970
vn 0.9598 0.1378 0.2445
vn 0.6778 -0.3697 -0.6355
vn 0.6565 -0.6381 -0.4023
vn 0.3655 -0.7964 -0.4819
vn -0.8567 -0.2562 -0.4476
vn -0.7677 -0.5250 -0.3674
vn -0.7675 -0.5244 -0.3687
vn -0.9718 -0.2337 -0.0318
vn -0.9438 -0.3271 -0.0484
vn -0.6749 -0.6704 0.3084
vn -0.3993 -0.0874 0.9126
vn -0.4398 -0.2983 0.8471
vn -0.1358 -0.5161 0.8457
vn 0.9557 0.1468 0.2553
vn 0.9645 -0.0511 0.2593
vn 0.9674 -0.2521 0.0244
vn 0.0235 -0.9262 -0.3763
vn -0.1702 -0.9338 -0.3147
vn -0.1385 -0.9492 -0.2827
vn -0.2469 -0.9498 -0.1923
vn -0.2943 -0.9538 -0.0597
vn -0.1354 -0.9702 -0.2011
vn -0.0886 -0.9954 -0.0377
vn -0.0032 -0.9996 0.0293
vn 0.0298 -0.8964 -0.4422
vn 0.8026 -0.5964 0.0140
vn 0.7814 -0.6203 0.0674
vn 0.3253 -0.9455 0.0128
vn -0.2715 -0.8427 -0.4649
vn -0.4759 -0.8649 -0.1597
vn -0.0694 -0.9908 -0.1162
usemtl None
s off
f 1//1 74//1 43//1
f 2//2 44//2 46//2
f 1//3 43//3 48//3
f 1//4 48//4 50//4
f 1//5 50//5 77//5
f 2//6 46//6 53//6
f 3//7 45//7 55//7
f 4//8 49//8 57//8
f 5//9 51//9 59//9
f 6//10 52//10 61//10
f 2//11 53//11 86//11
f 3//12 55//12 88//12
f 4//13 57//13 90//13
f 5//14 59//14 92//14
f 6//15 61//15 84//15
f 7//16 63//16 68//16
f 8//17 64//17 70//17
f 9//18 65//18 71//18
f 10//19 66//19 72//19
f 11//20 67//20 99//20
f 39//21 103//21 69//21
f 39//22 104//22 103//22
f 42//23 105//23 102//23
f 42//24 106//24 105//24
f 36//25 96//25 107//25
f 41//26 108//26 101//26
f 41//27 109//27 108//27
f 35//28 95//28 110//28
f 40//29 111//29 100//29
f 40//30 112//30 111//30
f 34//31 94//31 113//31
f 38//32 114//32 98//32
f 38//33 115//33 114//33
f 33//34 93//34 116//34
f 24//35 117//35 54//35
f 24//36 118//36 117//36
f 31//37 91//37 119//37
f 32//38 120//38 62//38
f 32//39 121//39 120//39
f 29//40 89//40 122//40
f 30//41 123//41 60//41
f 30//42 124//42 123//42
f 27//43 87//43 125//43
f 28//44 126//44 58//44
f 28//45 127//45 126//45
f 25//46 85//46 128//46
f 26//47 129//47 56//47
f 26//48 130//48 129//48
f 23//49 83//49 131//49
f 31//50 132//50 91//50
f 31//51 133//51 132//51
f 22//52 82//52 134//52
f 29//53 135//53 89//53
f 29//54 136//54 135//54
f 21//55 81//55 137//55
f 27//56 138//56 87//56
f 27//57 139//57 138//57
f 19//58 79//58 140//58
f 25//59 141//59 85//59
f 25//60 142//60 141//60
f 15//61 75//61 143//61
f 23//62 144//62 83//62
f 23//63 145//63 144//63
f 16//64 76//64 146//64
f 17//65 147//65 47//65
f 17//66 148//66 147//66
f 20//67 80//67 149//67
f 20//68 150//68 80//68
f 20//69 151//69 150//69
f 18//70 78//70 152//70
f 18//71 153//71 78//71
f 18//72 154//72 153//72
f 13//73 73//73 155//73
f 16//74 156//74 76//74
f 16//75 157//75 156//75
f 14//76 74//76 158//76
f 13//77 159//77 73//77
f 13//78 160//78 159//78
f 14//79 44//79 161//79
f 161//80 75//80 15//80
f 161//81 44//81 75//81
f 44//82 2//82 75//82
f 159//83 161//83 15//83
f 159//84 160//84 161//84
f 160//85 14//85 161//85
f 73//86 45//86 3//86
f 73//87 159//87 45//87
f 159//88 15//88 45//88
f 158//89 77//89 17//89
f 158//90 74//90 77//90
f 74//91 1//91 77//91
f 156//92 158//92 17//92
f 156//93 157//93 158//93
f 157//94 14//94 158//94
f 76//95 47//95 6//95
f 76//96 156//96 47//96
f 156//97 17//97 47//97
f 155//98 79//98 19//98
f 155//99 73//99 79//99
f 73//100 3//100 79//100
f 153//101 155//101 19//101
f 153//102 154//102 155//102
f 154//103 13//103 155//103
f 78//104 49//104 4//104
f 78//105 153//105 49//105
f 153//106 19//106 49//106
f 152//107 81//107 21//107
f 152//108 78//108 81//108
f 78//109 4//109 81//109
f 150//110 152//110 21//110
f 150//111 151//111 152//111
f 151//112 18//112 152//112
f 80//113 51//113 5//113
f 80//114 150//114 51//114
f 150//115 21//115 51//115
f 149//116 82//116 22//116
f 149//117 80//117 82//117
f 80//118 5//118 82//118
f 147//119 149//119 22//119
f 147//120 148//120 149//120
f 148//121 20//121 149//121
f 47//122 52//122 6//122
f 47//123 147//123 52//123
f 147//124 22//124 52//124
f 146//125 84//125 24//125
f 146//126 76//126 84//126
f 76//127 6//127 84//127
f 144//128 146//128 24//128
f 144//129 145//129 146//129
f 145//130 16//130 146//130
f 83//131 54//131 11//131
f 83//132 144//132 54//132
f 144//133 24//133 54//133
f 143//134 86//134 26//134
f 143//135 75//135 86//135
f 75//136 2//136 86//136
f 141//137 143//137 26//137
f 141//138 142//138 143//138
f 142//139 15//139 143//139
f 85//140 56//140 7//140
f 85//141 141//141 56//141
f 141//142 26//142 56//142
f 140//143 88//143 28//143
f 140//144 79//144 88//144
f 79//145 3//145 88//145
f 138//146 140//146 28//146
f 138//147 139//147 140//147
f 139//148 19//148 140//148
f 87//149 58//149 8//149
f 87//150 138//150 58//150
f 138//151 28//151 58//151
f 137//152 90//152 30//152
f 137//153 81//153 90//153
f 81//154 4//154 90//154
f 135//155 137//155 30//155
f 135//156 136//156 137//156
f 136//157 21//157 137//157
f 89//158 60//158 9//158
f 89//159 135//159 60//159
f 135//160 30//160 60//160
f 134//161 92//161 32//161
f 134//162 82//162 92//162
f 82//163 5//163 92//163
f 132//164 134//164 32//164
f 132//165 133//165 134//165
f 133//166 22//166 134//166
f 91//167 62//167 10//167
f 91//168 132//168 62//168
f 132//169 32//169 62//169
f 131//170 93//170 33//170
f 131//171 83//171 93//171
f 83//172 11//172 93//172
f 129//173 131//173 33//173
f 129//174 130//174 131//174
f 130//175 23//175 131//175
f 56//176 63//176 7//176
f 56//177 129//177 63//177
f 129//178 33//178 63//178
f 128//179 94//179 34//179
f 128//180 85//180 94//180
f 85//181 7//181 94//181
f 126//182 128//182 34//182
f 126//183 127//183 128//183
f 127//184 25//184 128//184
f 58//185 64//185 8//185
f 58//186 126//186 64//186
f 126//187 34//187 64//187
f 125//188 95//188 35//188
f 125//189 87//189 95//189
f 87//190 8//190 95//190
f 123//191 125//191 35//191
f 123//192 124//192 125//192
f 124//193 27//193 125//193
f 60//194 65//194 9//194
f 60//195 123//195 65//195
f 123//196 35//196 65//196
f 122//197 96//197 36//197
f 122//198 89//198 96//198
f 89//199 9//199 96//199
f 120//200 122//200 36//200
f 120//201 121//201 122//201
f 121//202 29//202 122//202
f 62//203 66//203 10//203
f 62//204 120//204 66//204
f 120//205 36//205 66//205
f 119//206 97//206 37//206
f 119//207 91//207 97//207
f 91//208 10//208 97//208
f 117//209 119//209 37//209
f 117//210 118//210 119//210
f 118//211 31//211 119//211
f 54//212 67//212 11//212
f 54//213 117//213 67//213
f 117//214 37//214 67//214
f 116//215 99//215 39//215
f 116//216 93//216 99//216
f 93//217 11//217 99//217
f 114//218 116//218 39//218
f 114//219 115//219 116//219
f 115//220 33//220 116//220
f 98//221 69//221 12//221
f 98//222 114//222 69//222
f 114//223 39//223 69//223
f 113//224 68//224 38//224
f 113//225 94//225 68//225
f 94//226 7//226 68//226
f 111//227 113//227 38//227
f 111//228 112//228 113//228
f 112//229 34//229 113//229
f 100//230 98//230 12//230
f 100//231 111//231 98//231
f 111//232 38//232 98//232
f 110//233 70//233 40//233
f 110//234 95//234 70//234
f 95//235 8//235 70//235
f 108//236 110//236 40//236
f 108//237 109//237 110//237
f 109//238 35//238 110//238
f 101//239 100//239 12//239
f 101//240 108//240 100//240
f 108//241 40//241 100//241
f 107//242 71//242 41//242
f 107//243 96//243 71//243
f 96//244 9//244 71//244
f 105//245 107//245 41//245
f 105//246 106//246 107//246
f 106//247 36//247 107//247
f 102//248 101//248 12//248
f 102//249 105//249 101//249
f 105//250 41//250 101//250
f 97//251 10//251 72//251
f 104//252 37//252 97//252 72//252 42//252 103//252
f 69//253 102//253 12//253
f 69//254 103//254 102//254
f 103//255 42//255 102//255
f 99//256 104//256 39//256
f 99//257 67//257 104//257
f 67//258 37//258 104//258
f 72//259 106//259 42//259
f 72//260 66//260 106//260
f 66//261 36//261 106//261
f 71//262 109//262 41//262
f 71//263 65//263 109//263
f 65//264 35//264 109//264
f 70//265 112//265 40//265
f 70//266 64//266 112//266
f 64//267 34//267 112//267
f 68//268 115//268 38//268
f 68//269 63//269 115//269
f 63//270 33//270 115//270
f 84//271 118//271 24//271
f 84//272 61//272 118//272
f 61//273 31//273 118//273
f 92//274 121//274 32//274
f 92//275 59//275 121//275
f 59//276 29//276 121//276
f 90//277 124//277 30//277
f 90//278 57//278 124//278
f 57//279 27//279 124//279
f 88//280 127//280 28//280
f 88//281 55//281 127//281
f 55//282 25//282 127//282
f 86//283 130//283 26//283
f 86//284 53//284 130//284
f 53//285 23//285 130//285
f 61//286 133//286 31//286
f 61//287 52//287 133//287
f 52//288 22//288 133//288
f 59//289 136//289 29//289
f 59//290 51//290 136//290
f 51//291 21//291 136//291
f 57//292 139//292 27//292
f 57//293 49//293 139//293
f 49//294 19//294 139//294
f 55//295 142//295 25//295
f 55//296 45//296 142//296
f 45//297 15//297 142//297
f 53//298 145//298 23//298
f 53//299 46//299 145//299
f 46//300 16//300 145//300
f 77//301 148//301 17//301
f 77//302 50//302 148//302
f 50//303 20//303 148//303
f 50//304 151//304 20//304
f 50//305 48//305 151//305
f 48//306 18//306 151//306
f 48//307 154//307 18//307
f 48//308 43//308 154//308
f 43//309 13//309 154//309
f 46//310 157//310 16//310
f 46//311 44//311 157//311
f 44//312 14//312 157//312
f 43//313 160//313 13//313
f 43//314 74//314 160//314
f 74//315 14//315 160//315
